<?xml version="1.0" standalone="no"?><!DOCTYPE svg PUBLIC "-//W3C//DTD SVG 1.1//EN" "http://www.w3.org/Graphics/SVG/1.1/DTD/svg11.dtd"><svg t="1548834549860" class="icon" style="" viewBox="0 0 1024 1024" version="1.1" xmlns="http://www.w3.org/2000/svg" p-id="11582" xmlns:xlink="http://www.w3.org/1999/xlink" width="64" height="64"><defs><style type="text/css"></style></defs><path d="M860.444444 298.666667h-696.888888C96.896 298.666667 42.666667 244.437333 42.666667 177.777778S96.896 56.888889 163.555556 56.888889h696.888888c66.659556 0 120.888889 54.229333 120.888889 120.888889S927.104 298.666667 860.444444 298.666667z m-696.888888-184.888889C128.270222 113.777778 99.555556 142.492444 99.555556 177.777778S128.270222 241.777778 163.555556 241.777778h696.888888c35.285333 0 64-28.714667 64-64S895.729778 113.777778 860.444444 113.777778h-696.888888zM746.666667 967.111111h-583.111111C96.896 967.111111 42.666667 912.881778 42.666667 846.222222S96.896 725.333333 163.555556 725.333333h583.111111c66.659556 0 120.888889 54.229333 120.888889 120.888889S813.326222 967.111111 746.666667 967.111111z m-583.111111-184.888889C128.270222 782.222222 99.555556 810.936889 99.555556 846.222222S128.270222 910.222222 163.555556 910.222222h583.111111c35.285333 0 64-28.714667 64-64S781.952 782.222222 746.666667 782.222222h-583.111111zM576 640h-412.444444C96.896 640 42.666667 585.770667 42.666667 519.111111S96.896 398.222222 163.555556 398.222222h412.444444c66.659556 0 120.888889 54.229333 120.888889 120.888889S642.659556 640 576 640z m-412.444444-184.888889C128.270222 455.111111 99.555556 483.825778 99.555556 519.111111S128.270222 583.111111 163.555556 583.111111h412.444444c35.285333 0 64-28.714667 64-64S611.285333 455.111111 576 455.111111h-412.444444z" fill="#ffffff" p-id="11583"></path></svg>